<?xml version="1.0" standalone="no"?><!DOCTYPE svg PUBLIC "-//W3C//DTD SVG 1.1//EN" "http://www.w3.org/Graphics/SVG/1.1/DTD/svg11.dtd"><svg class="icon" width="512px" height="512.00px" viewBox="0 0 1024 1024" version="1.1" xmlns="http://www.w3.org/2000/svg"><path d="M832 64 192 64C121.344 64 64 121.344 64 192l0 640c0 70.656 57.344 128 128 128l640 0c70.656 0 128-57.344 128-128L960 192C960 121.344 902.656 64 832 64zM864 832l-128 0c-17.664 0-32-14.336-32-32s14.336-32 32-32L768 768 768 576l-32 0C718.336 576 704 561.664 704 544S718.336 512 736 512l64 0C817.664 512 832 526.336 832 544L832 768l32 0c17.664 0 32 14.336 32 32S881.664 832 864 832zM864 320l-82.752 0L398.08 797.504C380.48 819.328 354.048 832 326.08 832 287.36 832 256 800.64 256 761.92L256 192 160 192C142.336 192 128 177.664 128 160S142.336 128 160 128l192 0C369.664 128 384 142.336 384 160l0 498.88L654.464 320 608 320C590.336 320 576 305.664 576 288S590.336 256 608 256l256 0C881.664 256 896 270.336 896 288S881.664 320 864 320z" fill="#1296db" /></svg>
